<mxfile host="app.diagrams.net" modified="2024-06-14T05:49:37.856Z" agent="Mozilla/5.0 (Windows NT 10.0; Win64; x64) AppleWebKit/537.36 (KHTML, like Gecko) Chrome/123.0.0.0 Safari/537.36 OPR/109.0.0.0" version="24.5.4" etag="483-tDd9STMyRdVq4WEI" type="github">
  <diagram name="Page-1" id="JHVed6bhsAVNh8Nu0l7K">
    <mxGraphModel>
      <root>
        <mxCell id="0" />
        <mxCell id="1" parent="0" />
      </root>
    </mxGraphModel>
  </diagram>
</mxfile>
